# xmcd
#
# Track frame offsets:
#	150
#	14564
#	29915
#	44122
#	64130
#	82921
#	95153
#	113774
#	123404
#	134901
#	147056
#	164243
#	179829
#	191444
#
# Disc length: 2814 seconds
#
# Revision: 2
# Processed by: cddbd v1.5.2PL0 Copyright (c) Steve Scherf et al.
# Submitted via: audiograbber 1.83.01
#
DISCID=e00afc0e
DTITLE=Justin Trevino - Texas Honky Tonk
DYEAR=1998
DGENRE=Country
TTITLE0=Tonight Carmen
TTITLE1=Texas Honky Tonk
TTITLE2=Walk Me To The Door (with John
TTITLE3=Love Me
TTITLE4=I Turn to the Wine
TTITLE5=Wrong Company (with Kathy Timm
TTITLE6=Take Me As I Am
TTITLE7=Let The Mother Nature Have Her
TTITLE8=Lord Forgive
TTITLE9=Last Love
TTITLE10=Forbidden Love
TTITLE11=There Goes My Everything
TTITLE12=What A Way To Live (with Johnn
TTITLE13=This Song's Just For You
EXTD=
EXTT0=
EXTT1=
EXTT2=
EXTT3=
EXTT4=
EXTT5=
EXTT6=
EXTT7=
EXTT8=
EXTT9=
EXTT10=
EXTT11=
EXTT12=
EXTT13=
PLAYORDER=
